<?xml version="1.0" encoding="utf-8"?>
<svg xmlns="http://www.w3.org/2000/svg" fill="none" height="24" viewBox="0 0 25 24" width="25">
<g clip-path="url(#clip0_190_4647)">
<path d="M24.9595 12C24.9595 17.9897 20.571 22.9542 14.8345 23.8542V15.4688H17.6306L18.1626 12H14.8345V9.74906C14.8345 8.79984 15.2995 7.875 16.7901 7.875H18.3032V4.92188C18.3032 4.92188 16.9298 4.6875 15.6168 4.6875C12.876 4.6875 11.0845 6.34875 11.0845 9.35625V12H8.0376V15.4688H11.0845V23.8542C5.34791 22.9542 0.959473 17.9897 0.959473 12C0.959473 5.37281 6.33228 0 12.9595 0C19.5867 0 24.9595 5.37281 24.9595 12Z" fill="#1877F2"/>
<path d="M17.6306 15.4688L18.1626 12H14.8345V9.74902C14.8345 8.80003 15.2994 7.875 16.7901 7.875H18.3032V4.92188C18.3032 4.92188 16.93 4.6875 15.6171 4.6875C12.876 4.6875 11.0845 6.34875 11.0845 9.35625V12H8.0376V15.4688H11.0845V23.8542C11.6954 23.95 12.3216 24 12.9595 24C13.5973 24 14.2235 23.95 14.8345 23.8542V15.4688H17.6306Z" fill="white"/>
</g>
<defs>
<clipPath id="clip0_190_4647">
<rect fill="white" height="24" transform="translate(0.959473)" width="24"/>
</clipPath>
</defs>
</svg>