<?xml version="1.0" encoding="utf-8"?>
<svg xmlns="http://www.w3.org/2000/svg" fill="none" height="36" viewBox="0 0 36 36" width="36">
<g clip-path="url(#clip0_1789_1824)">
<path d="M2.25005 2.44945C-0.578945 5.38795 5.47469e-05 8.50945 5.47469e-05 17.9924C5.47469e-05 25.8674 -1.37395 33.7619 5.81705 35.6204C8.06255 36.1979 27.9586 36.1979 30.2011 35.6174C33.1951 34.8449 35.6311 32.4164 35.9641 28.1819C36.0106 27.5909 36.0106 8.40445 35.9626 7.80145C35.6086 3.29095 32.8321 0.691448 29.1736 0.164948C28.3351 0.0434475 28.1671 0.00744752 23.8651 -5.24782e-05C8.60555 0.00744752 5.26055 -0.672053 2.25005 2.44945Z" fill="url(#paint0_linear_1789_1824)"/>
<path d="M17.997 4.70814C12.5505 4.70814 7.37847 4.22364 5.40297 9.29364C4.58697 11.3876 4.70547 14.1071 4.70547 18.0011C4.70547 21.4181 4.59597 24.6296 5.40297 26.7071C7.37397 31.7801 12.588 31.2941 17.994 31.2941C23.2095 31.2941 28.587 31.8371 30.5865 26.7071C31.404 24.5921 31.284 21.9131 31.284 18.0011C31.284 12.8081 31.5705 9.45564 29.052 6.93864C26.502 4.38864 23.0535 4.70814 17.991 4.70814H17.997ZM16.806 7.10364C28.167 7.08564 29.613 5.82264 28.815 23.3681C28.5315 29.5736 23.8065 28.8926 17.9985 28.8926C7.40846 28.8926 7.10397 28.5896 7.10397 17.9951C7.10397 7.27764 7.94397 7.10964 16.806 7.10064V7.10364ZM25.092 9.31014C24.2115 9.31014 23.4975 10.0241 23.4975 10.9046C23.4975 11.7851 24.2115 12.4991 25.092 12.4991C25.9725 12.4991 26.6865 11.7851 26.6865 10.9046C26.6865 10.0241 25.9725 9.31014 25.092 9.31014ZM17.997 11.1746C14.2275 11.1746 11.172 14.2316 11.172 18.0011C11.172 21.7706 14.2275 24.8261 17.997 24.8261C21.7665 24.8261 24.8205 21.7706 24.8205 18.0011C24.8205 14.2316 21.7665 11.1746 17.997 11.1746ZM17.997 13.5701C23.8545 13.5701 23.862 22.4321 17.997 22.4321C12.141 22.4321 12.132 13.5701 17.997 13.5701Z" fill="white"/>
</g>
<defs>
<linearGradient gradientUnits="userSpaceOnUse" id="paint0_linear_1789_1824" x1="2.31908" x2="35.7773" y1="33.7006" y2="4.74291">
<stop stop-color="#FFDD55"/>
<stop offset="0.5" stop-color="#FF543E"/>
<stop offset="1" stop-color="#C837AB"/>
</linearGradient>
<clipPath id="clip0_1789_1824">
<rect fill="white" height="36" rx="18" width="36"/>
</clipPath>
</defs>
</svg>