<?xml version="1.0" encoding="utf-8"?>
<svg xmlns="http://www.w3.org/2000/svg" fill="none" height="24" viewBox="0 0 25 24" width="25">
<g clip-path="url(#clip0_190_4661)">
<path d="M12.9595 24C19.5869 24 24.9595 18.6274 24.9595 12C24.9595 5.37258 19.5869 0 12.9595 0C6.33206 0 0.959473 5.37258 0.959473 12C0.959473 18.6274 6.33206 24 12.9595 24Z" fill="#039BE5"/>
<path d="M6.45025 11.7402L18.0202 7.27921C18.5572 7.08521 19.0262 7.41021 18.8522 8.22221L18.8532 8.22121L16.8832 17.5022C16.7372 18.1602 16.3462 18.3202 15.7992 18.0102L12.7992 15.7992L11.3522 17.1932C11.1922 17.3532 11.0572 17.4882 10.7472 17.4882L10.9602 14.4352L16.5202 9.41221C16.7622 9.19921 16.4662 9.07921 16.1472 9.29121L9.27625 13.6172L6.31425 12.6932C5.67125 12.4892 5.65725 12.0502 6.45025 11.7402Z" fill="white"/>
</g>
<defs>
<clipPath id="clip0_190_4661">
<rect fill="white" height="24" transform="translate(0.959473)" width="24"/>
</clipPath>
</defs>
</svg>