<?xml version="1.0" encoding="utf-8"?>
<svg xmlns="http://www.w3.org/2000/svg" fill="none" height="24" viewBox="0 0 25 24" width="25">
<g clip-path="url(#clip0_190_4653)">
<path d="M12.9595 24C19.5869 24 24.9595 18.6274 24.9595 12C24.9595 5.37258 19.5869 0 12.9595 0C6.33206 0 0.959473 5.37258 0.959473 12C0.959473 18.6274 6.33206 24 12.9595 24Z" fill="#F20000"/>
<path d="M18.6785 9.11326C18.4385 8.368 17.6443 7.92747 16.9069 7.82484C14.2785 7.54537 11.6279 7.54537 8.99952 7.82484C8.26847 7.92747 7.47426 8.37432 7.23426 9.11326C6.86006 11.0198 6.86006 12.9809 7.23426 14.8875C7.48058 15.6312 8.27479 16.0733 9.01216 16.1759C11.6406 16.4538 14.2911 16.4538 16.9195 16.1759C17.6506 16.0733 18.4448 15.6248 18.6848 14.8875C19.0569 12.9805 19.0548 11.0194 18.6785 9.11326ZM11.5243 14.2985V9.70063L15.2679 11.9996C14.0064 12.7748 12.7811 13.5296 11.5243 14.2985Z" fill="white"/>
</g>
<defs>
<clipPath id="clip0_190_4653">
<rect fill="white" height="24" transform="translate(0.959473)" width="24"/>
</clipPath>
</defs>
</svg>