<?xml version="1.0" encoding="utf-8"?>
<svg xmlns="http://www.w3.org/2000/svg" fill="none" height="24" viewBox="0 0 25 24" width="25">
<g clip-path="url(#clip0_190_4666)">
<path d="M12.9625 0H12.9565C6.33997 0 0.959473 5.382 0.959473 12C0.959473 14.625 1.80547 17.058 3.24397 19.0335L1.74847 23.4915L6.36097 22.017C8.25847 23.274 10.522 24 12.9625 24C19.579 24 24.9595 18.6165 24.9595 12C24.9595 5.3835 19.579 0 12.9625 0Z" fill="#4CAF50"/>
<path d="M19.9448 16.9453C19.6553 17.7628 18.5063 18.4408 17.5898 18.6388C16.9628 18.7723 16.1438 18.8788 13.3868 17.7358C9.8603 16.2748 7.5893 12.6913 7.4123 12.4588C7.2428 12.2263 5.9873 10.5613 5.9873 8.83928C5.9873 7.11728 6.8618 6.27878 7.2143 5.91878C7.5038 5.62328 7.9823 5.48828 8.4413 5.48828C8.5898 5.48828 8.7233 5.49578 8.8433 5.50178C9.1958 5.51678 9.3728 5.53778 9.6053 6.09428C9.8948 6.79178 10.5998 8.51378 10.6838 8.69078C10.7693 8.86778 10.8548 9.10778 10.7348 9.34028C10.6223 9.58028 10.5233 9.68678 10.3463 9.89078C10.1693 10.0948 10.0013 10.2508 9.8243 10.4698C9.6623 10.6603 9.4793 10.8643 9.6833 11.2168C9.8873 11.5618 10.5923 12.7123 11.6303 13.6363C12.9698 14.8288 14.0558 15.2098 14.4443 15.3718C14.7338 15.4918 15.0788 15.4633 15.2903 15.2383C15.5588 14.9488 15.8903 14.4688 16.2278 13.9963C16.4678 13.6573 16.7708 13.6153 17.0888 13.7353C17.4128 13.8478 19.1273 14.6953 19.4798 14.8708C19.8323 15.0478 20.0648 15.1318 20.1503 15.2803C20.2343 15.4288 20.2343 16.1263 19.9448 16.9453Z" fill="#FAFAFA"/>
</g>
<defs>
<clipPath id="clip0_190_4666">
<rect fill="white" height="24" transform="translate(0.959473)" width="24"/>
</clipPath>
</defs>
</svg>