<svg width="25" height="25" viewBox="0 0 25 25" fill="none" xmlns="http://www.w3.org/2000/svg">
<path d="M12.9785 22.9316L12.7285 19.9316H12.4785C10.1118 19.9316 8.10352 19.1066 6.45352 17.4566C4.80352 15.8066 3.97852 13.7983 3.97852 11.4316C3.97852 9.06497 4.80352 7.05664 6.45352 5.40664C8.10352 3.75664 10.1118 2.93164 12.4785 2.93164C13.6618 2.93164 14.7662 3.15231 15.7915 3.59364C16.8168 4.03497 17.7168 4.64331 18.4915 5.41864C19.2662 6.19397 19.8742 7.09397 20.3155 8.11864C20.7568 9.14331 20.9778 10.2476 20.9785 11.4316C20.9785 12.6816 20.7745 13.8816 20.3665 15.0316C19.9585 16.1816 19.3998 17.2483 18.6905 18.2316C17.9825 19.215 17.1408 20.1066 16.1655 20.9066C15.1902 21.7066 14.1278 22.3816 12.9785 22.9316ZM14.9785 19.2816C16.1618 18.2816 17.1245 17.111 17.8665 15.7696C18.6085 14.4283 18.9792 12.9823 18.9785 11.4316C18.9785 9.61497 18.3492 8.07764 17.0905 6.81964C15.8318 5.56164 14.2945 4.93231 12.4785 4.93164C10.6618 4.93164 9.12452 5.56097 7.86652 6.81964C6.60852 8.07831 5.97918 9.61564 5.97852 11.4316C5.97852 13.2483 6.60785 14.786 7.86652 16.0446C9.12518 17.3033 10.6625 17.9323 12.4785 17.9316H14.9785V19.2816ZM12.4535 16.9066C12.7368 16.9066 12.9785 16.8066 13.1785 16.6066C13.3785 16.4066 13.4785 16.165 13.4785 15.8816C13.4785 15.5983 13.3785 15.3566 13.1785 15.1566C12.9785 14.9566 12.7368 14.8566 12.4535 14.8566C12.1702 14.8566 11.9285 14.9566 11.7285 15.1566C11.5285 15.3566 11.4285 15.5983 11.4285 15.8816C11.4285 16.165 11.5285 16.4066 11.7285 16.6066C11.9285 16.8066 12.1702 16.9066 12.4535 16.9066ZM11.7285 13.7316H13.2285C13.2285 13.2316 13.2785 12.8816 13.3785 12.6816C13.4785 12.4816 13.7952 12.115 14.3285 11.5816C14.6285 11.2816 14.8785 10.9566 15.0785 10.6066C15.2785 10.2566 15.3785 9.88164 15.3785 9.48164C15.3785 8.63164 15.0912 7.99431 14.5165 7.56964C13.9418 7.14497 13.2625 6.93231 12.4785 6.93164C11.7452 6.93164 11.1285 7.13597 10.6285 7.54464C10.1285 7.95331 9.77852 8.44897 9.57852 9.03164L10.9785 9.58164C11.0618 9.29831 11.2202 9.01931 11.4535 8.74464C11.6868 8.46997 12.0285 8.33231 12.4785 8.33164C12.9285 8.33164 13.2662 8.45664 13.4915 8.70664C13.7168 8.95664 13.8292 9.23164 13.8285 9.53164C13.8285 9.81497 13.7452 10.0693 13.5785 10.2946C13.4118 10.52 13.2118 10.749 12.9785 10.9816C12.3952 11.4816 12.0412 11.8776 11.9165 12.1696C11.7918 12.4616 11.7292 12.9823 11.7285 13.7316Z" fill="#808080"/>
</svg>
