<?xml version="1.0" encoding="utf-8"?>
<svg xmlns="http://www.w3.org/2000/svg" fill="none" height="75" viewBox="0 0 75 75" width="75">
<circle cx="37.5" cy="37.5" fill="#474747" r="37.5"/>
<g clip-path="url(#clip0_1746_3342)">
<path d="M16.9387 36.7372C16.9377 40.434 17.9112 44.0437 19.7623 47.2254L16.7617 58.0961L27.9735 55.1792C31.0745 56.8542 34.549 57.7319 38.0797 57.7322H38.089C49.7447 57.7322 59.2327 48.3211 59.2377 36.7537C59.2399 31.1485 57.042 25.8777 53.0487 21.9123C49.056 17.9471 43.7459 15.7623 38.0881 15.7598C26.4311 15.7598 16.9437 25.1703 16.9389 36.7372" fill="url(#paint0_linear_1746_3342)"/>
<path d="M16.1839 36.7299C16.1827 40.5597 17.1911 44.2985 19.1082 47.5941L16 58.8545L27.6138 55.833C30.8137 57.5642 34.4166 58.4769 38.0827 58.4783H38.0921C50.166 58.4783 59.9948 48.7287 60 36.7473C60.0021 30.9406 57.7251 25.4804 53.5891 21.3728C49.4525 17.2658 43.9525 15.0024 38.0921 15C26.0162 15 16.1887 24.7482 16.1839 36.7299ZM23.1003 47.0265L22.6667 46.3435C20.8438 43.4675 19.8816 40.144 19.883 36.7312C19.8868 26.7724 28.055 18.6701 38.099 18.6701C42.9631 18.6721 47.5342 20.5536 50.9724 23.9671C54.4105 27.3811 56.3023 31.9192 56.3011 36.7459C56.2966 46.7047 48.1282 54.8081 38.0921 54.8081H38.0849C34.817 54.8064 31.6121 53.9356 28.8171 52.29L28.1519 51.8986L21.2601 53.6915L23.1003 47.0265Z" fill="url(#paint1_linear_1746_3342)"/>
<path d="M32.6173 27.6445C32.2072 26.7401 31.7757 26.7219 31.3857 26.706C31.0663 26.6924 30.7013 26.6934 30.3366 26.6934C29.9715 26.6934 29.3784 26.8296 28.877 27.3728C28.3751 27.9165 26.9609 29.2304 26.9609 31.9026C26.9609 34.5748 28.9225 37.1575 29.196 37.5203C29.4698 37.8823 32.9829 43.5416 38.5469 45.7188C43.171 47.5281 44.112 47.1682 45.1156 47.0775C46.1193 46.9871 48.3544 45.764 48.8104 44.4956C49.2667 43.2275 49.2667 42.1404 49.1299 41.9133C48.9931 41.687 48.628 41.5511 48.0806 41.2795C47.5332 41.008 44.8418 39.6938 44.3401 39.5126C43.8382 39.3314 43.4733 39.2411 43.1082 39.7849C42.7432 40.3279 41.6949 41.5511 41.3754 41.9133C41.0562 42.2764 40.7367 42.3216 40.1895 42.0499C39.6417 41.7774 37.8788 41.2045 35.7872 39.3543C34.1599 37.9146 33.0613 36.1367 32.742 35.5928C32.4226 35.0498 32.7078 34.7554 32.9822 34.4848C33.2282 34.2414 33.5298 33.8505 33.8038 33.5335C34.0767 33.2163 34.1678 32.99 34.3504 32.6277C34.5331 32.2652 34.4416 31.948 34.305 31.6763C34.1678 31.4046 33.1041 28.7184 32.6173 27.6445Z" fill="white"/>
</g>
<defs>
<linearGradient gradientUnits="userSpaceOnUse" id="paint0_linear_1746_3342" x1="2140.56" x2="2140.56" y1="4249.4" y2="15.7598">
<stop stop-color="#1FAF38"/>
<stop offset="1" stop-color="#60D669"/>
</linearGradient>
<linearGradient gradientUnits="userSpaceOnUse" id="paint1_linear_1746_3342" x1="2216" x2="2216" y1="4400.45" y2="15">
<stop stop-color="#F9F9F9"/>
<stop offset="1" stop-color="white"/>
</linearGradient>
<clipPath id="clip0_1746_3342">
<rect fill="white" height="44" transform="translate(16 15)" width="44"/>
</clipPath>
</defs>
</svg>