<svg width="37" height="25" viewBox="0 0 37 25" fill="none" xmlns="http://www.w3.org/2000/svg">
<path fill-rule="evenodd" clip-rule="evenodd" d="M0 2.08333C0 1.5308 0.276458 1.0009 0.768555 0.610195C1.26065 0.219494 1.92808 0 2.62401 0H34.1122C34.8081 0 35.4755 0.219494 35.9676 0.610195C36.4597 1.0009 36.7362 1.5308 36.7362 2.08333C36.7362 2.63587 36.4597 3.16577 35.9676 3.55647C35.4755 3.94717 34.8081 4.16667 34.1122 4.16667H2.62401C1.92808 4.16667 1.26065 3.94717 0.768555 3.55647C0.276458 3.16577 0 2.63587 0 2.08333ZM0 12.5C0 11.9475 0.276458 11.4176 0.768555 11.0269C1.26065 10.6362 1.92808 10.4167 2.62401 10.4167H34.1122C34.8081 10.4167 35.4755 10.6362 35.9676 11.0269C36.4597 11.4176 36.7362 11.9475 36.7362 12.5C36.7362 13.0525 36.4597 13.5824 35.9676 13.9731C35.4755 14.3638 34.8081 14.5833 34.1122 14.5833H2.62401C1.92808 14.5833 1.26065 14.3638 0.768555 13.9731C0.276458 13.5824 0 13.0525 0 12.5ZM0 22.9167C0 22.3641 0.276458 21.8342 0.768555 21.4435C1.26065 21.0528 1.92808 20.8333 2.62401 20.8333H18.3681C19.064 20.8333 19.7314 21.0528 20.2235 21.4435C20.7156 21.8342 20.9921 22.3641 20.9921 22.9167C20.9921 23.4692 20.7156 23.9991 20.2235 24.3898C19.7314 24.7805 19.064 25 18.3681 25H2.62401C1.92808 25 1.26065 24.7805 0.768555 24.3898C0.276458 23.9991 0 23.4692 0 22.9167Z" fill="url(#paint0_linear_17_158)"/>
<defs>
<linearGradient id="paint0_linear_17_158" x1="0" y1="0" x2="37" y2="-2.22097e-07" gradientUnits="userSpaceOnUse">
<stop stop-color="#FBD245"/>
<stop offset="1" stop-color="#F8EF87"/>
</linearGradient>
</defs>
</svg>
