<svg width="25" height="25" viewBox="0 0 25 25" fill="none" xmlns="http://www.w3.org/2000/svg">
<path d="M10.752 3.45117H6.75195C5.05195 3.45117 3.75195 4.75117 3.75195 6.45117V10.4512C3.75195 11.0512 4.15195 11.4512 4.75195 11.4512H10.752C11.352 11.4512 11.752 11.0512 11.752 10.4512V4.45117C11.752 3.85117 11.352 3.45117 10.752 3.45117Z" fill="#808080"/>
<path d="M18.752 3.45117H14.752C14.152 3.45117 13.752 3.85117 13.752 4.45117V10.4512C13.752 11.0512 14.152 11.4512 14.752 11.4512H20.752C21.352 11.4512 21.752 11.0512 21.752 10.4512V6.45117C21.752 4.75117 20.452 3.45117 18.752 3.45117Z" fill="#808080"/>
<path d="M20.752 13.4512H14.752C14.152 13.4512 13.752 13.8512 13.752 14.4512V20.4512C13.752 21.0512 14.152 21.4512 14.752 21.4512H18.752C20.452 21.4512 21.752 20.1512 21.752 18.4512V14.4512C21.752 13.8512 21.352 13.4512 20.752 13.4512Z" fill="#808080"/>
<path d="M10.752 13.4512H4.75195C4.15195 13.4512 3.75195 13.8512 3.75195 14.4512V18.4512C3.75195 20.1512 5.05195 21.4512 6.75195 21.4512H10.752C11.352 21.4512 11.752 21.0512 11.752 20.4512V14.4512C11.752 13.8512 11.352 13.4512 10.752 13.4512Z" fill="#808080"/>
</svg>
