<?xml version="1.0" encoding="utf-8"?>
<svg xmlns="http://www.w3.org/2000/svg" fill="none" height="40" viewBox="0 0 40 40" width="40">
<rect fill="#2A2A2A" height="40" rx="8" width="40"/>
<g clip-path="url(#clip0_2533_3973)">
<path d="M14.305 8.125H25.6948C27.5128 8.125 28.999 9.61241 28.999 11.431V23.875L25.624 20.5H14.3044C12.4864 20.5 10.999 19.0126 10.999 17.1958V11.431C10.9996 9.61241 12.487 8.125 14.305 8.125ZM24.0928 16C24.7144 16 25.2178 15.496 25.2178 14.875C25.2178 14.254 24.7144 13.75 24.0928 13.75C23.4718 13.75 22.9678 14.254 22.9678 14.875C22.9678 15.496 23.4724 16 24.0928 16ZM20.0002 15.9994C20.6218 15.9994 21.1252 15.4948 21.1252 14.8744C21.1252 14.254 20.6218 13.75 20.0002 13.75C19.3792 13.75 18.8752 14.254 18.8752 14.8744C18.8752 15.4948 19.3792 15.9994 20.0002 15.9994ZM15.8728 16C16.4944 16 16.9978 15.496 16.9978 14.875C16.9978 14.254 16.4944 13.75 15.8728 13.75C15.2518 13.75 14.7478 14.254 14.7478 14.875C14.7478 15.496 15.2518 16 15.8728 16Z" fill="#FBD245"/>
</g>
<path d="M16.4853 26.44V32H15.5733V29.568H12.9573V32H12.0453V26.44H12.9573V28.824H15.5733V26.44H16.4853ZM21.7259 29.688C21.7259 29.8533 21.7153 30.0027 21.6939 30.136H18.3259C18.3526 30.488 18.4833 30.7707 18.7179 30.984C18.9526 31.1973 19.2406 31.304 19.5819 31.304C20.0726 31.304 20.4193 31.0987 20.6219 30.688H21.6059C21.4726 31.0933 21.2299 31.4267 20.8779 31.688C20.5313 31.944 20.0993 32.072 19.5819 32.072C19.1606 32.072 18.7819 31.9787 18.4459 31.792C18.1153 31.6 17.8539 31.3333 17.6619 30.992C17.4753 30.6453 17.3819 30.2453 17.3819 29.792C17.3819 29.3387 17.4726 28.9413 17.6539 28.6C17.8406 28.2533 18.0993 27.9867 18.4299 27.8C18.7659 27.6133 19.1499 27.52 19.5819 27.52C19.9979 27.52 20.3686 27.6107 20.6939 27.792C21.0193 27.9733 21.2726 28.2293 21.4539 28.56C21.6353 28.8853 21.7259 29.2613 21.7259 29.688ZM20.7739 29.4C20.7686 29.064 20.6486 28.7947 20.4139 28.592C20.1793 28.3893 19.8886 28.288 19.5419 28.288C19.2273 28.288 18.9579 28.3893 18.7339 28.592C18.5099 28.7893 18.3766 29.0587 18.3339 29.4H20.7739ZM23.5354 26.08V32H22.6234V26.08H23.5354ZM25.6448 28.24C25.7995 28.0373 26.0101 27.8667 26.2768 27.728C26.5435 27.5893 26.8448 27.52 27.1808 27.52C27.5648 27.52 27.9141 27.616 28.2288 27.808C28.5488 27.9947 28.7995 28.2587 28.9808 28.6C29.1621 28.9413 29.2528 29.3333 29.2528 29.776C29.2528 30.2187 29.1621 30.616 28.9808 30.968C28.7995 31.3147 28.5488 31.5867 28.2288 31.784C27.9141 31.976 27.5648 32.072 27.1808 32.072C26.8448 32.072 26.5461 32.0053 26.2848 31.872C26.0235 31.7333 25.8101 31.5627 25.6448 31.36V34.096H24.7328V27.592H25.6448V28.24ZM28.3248 29.776C28.3248 29.472 28.2608 29.2107 28.1328 28.992C28.0101 28.768 27.8448 28.6 27.6368 28.488C27.4341 28.3707 27.2155 28.312 26.9808 28.312C26.7515 28.312 26.5328 28.3707 26.3248 28.488C26.1221 28.6053 25.9568 28.776 25.8288 29C25.7061 29.224 25.6448 29.488 25.6448 29.792C25.6448 30.096 25.7061 30.3627 25.8288 30.592C25.9568 30.816 26.1221 30.9867 26.3248 31.104C26.5328 31.2213 26.7515 31.28 26.9808 31.28C27.2155 31.28 27.4341 31.2213 27.6368 31.104C27.8448 30.9813 28.0101 30.8053 28.1328 30.576C28.2608 30.3467 28.3248 30.08 28.3248 29.776Z" fill="#FBD245"/>
<defs>
<clipPath id="clip0_2533_3973">
<rect fill="white" height="18" transform="matrix(-1 0 0 1 29 7)" width="18"/>
</clipPath>
</defs>
</svg>